<?xml version="1.0" encoding="UTF-8"?>
<!DOCTYPE svg PUBLIC "-//W3C//DTD SVG 1.1//EN" "http://www.w3.org/Graphics/SVG/1.1/DTD/svg11.dtd">
<svg version="1.2" width="73mm" height="73mm" viewBox="0 0 7300 7300" preserveAspectRatio="xMidYMid" fill-rule="evenodd" stroke-width="28.222" stroke-linejoin="round" xmlns="http://www.w3.org/2000/svg" xmlns:ooo="http://xml.openoffice.org/svg/export" xmlns:xlink="http://www.w3.org/1999/xlink" xmlns:presentation="http://sun.com/xmlns/staroffice/presentation" xmlns:smil="http://www.w3.org/2001/SMIL20/" xmlns:anim="urn:oasis:names:tc:opendocument:xmlns:animation:1.0" xml:space="preserve">
 <defs class="ClipPathGroup">
  <clipPath id="presentation_clip_path" clipPathUnits="userSpaceOnUse">
   <rect x="0" y="0" width="7300" height="7300"/>
  </clipPath>
  <clipPath id="presentation_clip_path_shrink" clipPathUnits="userSpaceOnUse">
   <rect x="7" y="7" width="7286" height="7286"/>
  </clipPath>
 </defs>
 <defs class="TextShapeIndex">
  <g ooo:slide="id1" ooo:id-list="id3 id4 id5 id6 id7 id8 id9"/>
 </defs>
 <defs class="EmbeddedBulletChars">
  <g id="bullet-char-template-57356" transform="scale(0.00048828125,-0.00048828125)">
   <path d="M 580,1141 L 1163,571 580,0 -4,571 580,1141 Z"/>
  </g>
  <g id="bullet-char-template-57354" transform="scale(0.00048828125,-0.00048828125)">
   <path d="M 8,1128 L 1137,1128 1137,0 8,0 8,1128 Z"/>
  </g>
  <g id="bullet-char-template-10146" transform="scale(0.00048828125,-0.00048828125)">
   <path d="M 174,0 L 602,739 174,1481 1456,739 174,0 Z M 1358,739 L 309,1346 659,739 1358,739 Z"/>
  </g>
  <g id="bullet-char-template-10132" transform="scale(0.00048828125,-0.00048828125)">
   <path d="M 2015,739 L 1276,0 717,0 1260,543 174,543 174,936 1260,936 717,1481 1274,1481 2015,739 Z"/>
  </g>
  <g id="bullet-char-template-10007" transform="scale(0.00048828125,-0.00048828125)">
   <path d="M 0,-2 C -7,14 -16,27 -25,37 L 356,567 C 262,823 215,952 215,954 215,979 228,992 255,992 264,992 276,990 289,987 310,991 331,999 354,1012 L 381,999 492,748 772,1049 836,1024 860,1049 C 881,1039 901,1025 922,1006 886,937 835,863 770,784 769,783 710,716 594,584 L 774,223 C 774,196 753,168 711,139 L 727,119 C 717,90 699,76 672,76 641,76 570,178 457,381 L 164,-76 C 142,-110 111,-127 72,-127 30,-127 9,-110 8,-76 1,-67 -2,-52 -2,-32 -2,-23 -1,-13 0,-2 Z"/>
  </g>
  <g id="bullet-char-template-10004" transform="scale(0.00048828125,-0.00048828125)">
   <path d="M 285,-33 C 182,-33 111,30 74,156 52,228 41,333 41,471 41,549 55,616 82,672 116,743 169,778 240,778 293,778 328,747 346,684 L 369,508 C 377,444 397,411 428,410 L 1163,1116 C 1174,1127 1196,1133 1229,1133 1271,1133 1292,1118 1292,1087 L 1292,965 C 1292,929 1282,901 1262,881 L 442,47 C 390,-6 338,-33 285,-33 Z"/>
  </g>
  <g id="bullet-char-template-9679" transform="scale(0.00048828125,-0.00048828125)">
   <path d="M 813,0 C 632,0 489,54 383,161 276,268 223,411 223,592 223,773 276,916 383,1023 489,1130 632,1184 813,1184 992,1184 1136,1130 1245,1023 1353,916 1407,772 1407,592 1407,412 1353,268 1245,161 1136,54 992,0 813,0 Z"/>
  </g>
  <g id="bullet-char-template-8226" transform="scale(0.00048828125,-0.00048828125)">
   <path d="M 346,457 C 273,457 209,483 155,535 101,586 74,649 74,723 74,796 101,859 155,911 209,963 273,989 346,989 419,989 480,963 531,910 582,859 608,796 608,723 608,648 583,586 532,535 482,483 420,457 346,457 Z"/>
  </g>
  <g id="bullet-char-template-8211" transform="scale(0.00048828125,-0.00048828125)">
   <path d="M -4,459 L 1135,459 1135,606 -4,606 -4,459 Z"/>
  </g>
  <g id="bullet-char-template-61548" transform="scale(0.00048828125,-0.00048828125)">
   <path d="M 173,740 C 173,903 231,1043 346,1159 462,1274 601,1332 765,1332 928,1332 1067,1274 1183,1159 1299,1043 1357,903 1357,740 1357,577 1299,437 1183,322 1067,206 928,148 765,148 601,148 462,206 346,322 231,437 173,577 173,740 Z"/>
  </g>
 </defs>
 <g>
  <g id="id2" class="Master_Slide">
   <g id="bg-id2" class="Background"/>
   <g id="bo-id2" class="BackgroundObjects"/>
  </g>
 </g>
 <g class="SlideGroup">
  <g>
   <g id="container-id1">
    <g id="id1" class="Slide" clip-path="url(#presentation_clip_path)">
     <g class="Page">
      <g class="Group">
       <g class="com.sun.star.drawing.CustomShape">
        <g id="id3">
         <rect class="BoundingBox" stroke="none" fill="none" x="100" y="100" width="7003" height="7102"/>
         <path fill="rgb(34,40,49)" stroke="none" d="M 1266,100 L 1267,100 C 1062,100 861,154 683,256 506,359 359,506 256,683 154,861 100,1062 100,1267 L 100,6034 100,6034 C 100,6239 154,6440 256,6618 359,6795 506,6942 683,7045 861,7147 1062,7201 1267,7201 L 5934,7201 5934,7201 C 6139,7201 6340,7147 6518,7045 6695,6942 6842,6795 6945,6618 7047,6440 7101,6239 7101,6034 L 7101,1266 7101,1267 7101,1267 C 7101,1062 7047,861 6945,683 6842,506 6695,359 6518,256 6340,154 6139,100 5934,100 L 1266,100 Z"/>
        </g>
       </g>
       <g class="com.sun.star.drawing.CustomShape">
        <g id="id4">
         <rect class="BoundingBox" stroke="none" fill="none" x="1300" y="900" width="1702" height="1702"/>
         <path fill="rgb(255,255,255)" stroke="none" d="M 3001,1751 C 3001,1900 2962,2046 2887,2176 2812,2305 2705,2412 2576,2487 2446,2562 2300,2601 2151,2601 2001,2601 1855,2562 1725,2487 1596,2412 1489,2305 1414,2176 1339,2046 1300,1900 1300,1751 1300,1601 1339,1455 1414,1325 1489,1196 1596,1089 1725,1014 1855,939 2001,900 2150,900 2300,900 2446,939 2576,1014 2705,1089 2812,1196 2887,1325 2962,1455 3001,1601 3001,1750 L 3001,1751 Z"/>
        </g>
       </g>
       <g class="com.sun.star.drawing.CustomShape">
        <g id="id5">
         <rect class="BoundingBox" stroke="none" fill="none" x="1300" y="4700" width="1702" height="1702"/>
         <path fill="rgb(255,255,255)" stroke="none" d="M 3001,5551 C 3001,5700 2962,5846 2887,5976 2812,6105 2705,6212 2576,6287 2446,6362 2300,6401 2151,6401 2001,6401 1855,6362 1725,6287 1596,6212 1489,6105 1414,5976 1339,5846 1300,5700 1300,5551 1300,5401 1339,5255 1414,5125 1489,4996 1596,4889 1725,4814 1855,4739 2001,4700 2150,4700 2300,4700 2446,4739 2576,4814 2705,4889 2812,4996 2887,5125 2962,5255 3001,5401 3001,5550 L 3001,5551 Z"/>
        </g>
       </g>
       <g class="com.sun.star.drawing.CustomShape">
        <g id="id6">
         <rect class="BoundingBox" stroke="none" fill="none" x="1300" y="2800" width="1702" height="1702"/>
         <path fill="rgb(255,255,255)" stroke="none" d="M 3001,3651 C 3001,3800 2962,3946 2887,4076 2812,4205 2705,4312 2576,4387 2446,4462 2300,4501 2151,4501 2001,4501 1855,4462 1725,4387 1596,4312 1489,4205 1414,4076 1339,3946 1300,3800 1300,3651 1300,3501 1339,3355 1414,3225 1489,3096 1596,2989 1725,2914 1855,2839 2001,2800 2150,2800 2300,2800 2446,2839 2576,2914 2705,2989 2812,3096 2887,3225 2962,3355 3001,3501 3001,3650 L 3001,3651 Z"/>
        </g>
       </g>
       <g class="com.sun.star.drawing.CustomShape">
        <g id="id7">
         <rect class="BoundingBox" stroke="none" fill="none" x="4300" y="900" width="1702" height="1702"/>
         <path fill="rgb(255,255,255)" stroke="none" d="M 6001,1751 C 6001,1900 5962,2046 5887,2176 5812,2305 5705,2412 5576,2487 5446,2562 5300,2601 5151,2601 5001,2601 4855,2562 4725,2487 4596,2412 4489,2305 4414,2176 4339,2046 4300,1900 4300,1751 4300,1601 4339,1455 4414,1325 4489,1196 4596,1089 4725,1014 4855,939 5001,900 5150,900 5300,900 5446,939 5576,1014 5705,1089 5812,1196 5887,1325 5962,1455 6001,1601 6001,1750 L 6001,1751 Z"/>
        </g>
       </g>
       <g class="com.sun.star.drawing.CustomShape">
        <g id="id8">
         <rect class="BoundingBox" stroke="none" fill="none" x="4300" y="4700" width="1702" height="1702"/>
         <path fill="rgb(255,255,255)" stroke="none" d="M 6001,5551 C 6001,5700 5962,5846 5887,5976 5812,6105 5705,6212 5576,6287 5446,6362 5300,6401 5151,6401 5001,6401 4855,6362 4725,6287 4596,6212 4489,6105 4414,5976 4339,5846 4300,5700 4300,5551 4300,5401 4339,5255 4414,5125 4489,4996 4596,4889 4725,4814 4855,4739 5001,4700 5150,4700 5300,4700 5446,4739 5576,4814 5705,4889 5812,4996 5887,5125 5962,5255 6001,5401 6001,5550 L 6001,5551 Z"/>
        </g>
       </g>
       <g class="com.sun.star.drawing.CustomShape">
        <g id="id9">
         <rect class="BoundingBox" stroke="none" fill="none" x="4300" y="2800" width="1702" height="1702"/>
         <path fill="rgb(255,255,255)" stroke="none" d="M 6001,3651 C 6001,3800 5962,3946 5887,4076 5812,4205 5705,4312 5576,4387 5446,4462 5300,4501 5151,4501 5001,4501 4855,4462 4725,4387 4596,4312 4489,4205 4414,4076 4339,3946 4300,3800 4300,3651 4300,3501 4339,3355 4414,3225 4489,3096 4596,2989 4725,2914 4855,2839 5001,2800 5150,2800 5300,2800 5446,2839 5576,2914 5705,2989 5812,3096 5887,3225 5962,3355 6001,3501 6001,3650 L 6001,3651 Z"/>
        </g>
       </g>
      </g>
     </g>
    </g>
   </g>
  </g>
 </g>
</svg>